<svg width="57" height="48" viewBox="0 0 57 48" fill="none" xmlns="http://www.w3.org/2000/svg">
<path d="M31.6592 47.1488C30.75 47.1557 29.8692 46.8263 29.1796 46.2216C28.8457 45.9337 28.5758 45.5766 28.3876 45.174C28.1994 44.7714 28.0973 44.3325 28.0882 43.8865C28.0791 43.4406 28.1631 42.9978 28.3347 42.5876C28.5063 42.1773 28.7614 41.8089 29.0832 41.507L47.6386 23.5721L29.0832 5.63711C28.7614 5.33525 28.5063 4.96686 28.3347 4.5566C28.1631 4.14633 28.0791 3.70358 28.0882 3.25762C28.0973 2.81167 28.1994 2.37278 28.3876 1.97016C28.5758 1.56755 28.8457 1.21042 29.1796 0.922496C29.8914 0.311441 30.7959 -0.0160085 31.7259 0.000602314C32.656 0.0172131 33.5485 0.376801 34.2389 1.0129L55.1853 21.258C55.4973 21.5523 55.7463 21.9093 55.9166 22.3065C56.087 22.7037 56.1749 23.1326 56.1749 23.5661C56.1749 23.9997 56.087 24.4287 55.9166 24.8259C55.7463 25.2231 55.4973 25.5801 55.1853 25.8744L34.2389 46.1155C33.5403 46.7841 32.617 47.1539 31.6592 47.1488Z" fill="#009B44"/>
<path d="M17.6154 47.1488C16.7062 47.1557 15.8253 46.8263 15.1358 46.2216C14.8019 45.9337 14.5319 45.5766 14.3438 45.174C14.1556 44.7714 14.0535 44.3325 14.0444 43.8865C14.0353 43.4406 14.1193 42.9978 14.2909 42.5876C14.4625 42.1773 14.7176 41.8089 15.0394 41.507L33.5948 23.5721L15.0394 5.63711C14.7176 5.33525 14.4625 4.96686 14.2909 4.5566C14.1193 4.14633 14.0353 3.70358 14.0444 3.25762C14.0535 2.81167 14.1556 2.37278 14.3438 1.97016C14.5319 1.56755 14.8019 1.21042 15.1358 0.922496C15.8475 0.311441 16.7521 -0.0160085 17.6821 0.000602314C18.6122 0.0172131 19.5047 0.376801 20.1951 1.0129L41.1415 21.258C41.4535 21.5523 41.7025 21.9093 41.8728 22.3065C42.0431 22.7037 42.1311 23.1326 42.1311 23.5661C42.1311 23.9997 42.0431 24.4287 41.8728 24.8259C41.7025 25.2231 41.4535 25.5801 41.1415 25.8744L20.1951 46.1155C19.4964 46.7841 18.5732 47.1539 17.6154 47.1488Z" fill="#159822" fill-opacity="0.6"/>
<path d="M3.57169 47.1488C2.66247 47.1557 1.78165 46.8263 1.09207 46.2216C0.75818 45.9337 0.488245 45.5766 0.300074 45.174C0.111904 44.7714 0.00977352 44.3325 0.000668093 43.8865C-0.00843734 43.4406 0.0756228 42.9978 0.247197 42.5876C0.41877 42.1773 0.673867 41.8089 0.995713 41.507L19.5512 23.5721L0.995713 5.63711C0.673867 5.33525 0.41877 4.96686 0.247197 4.5566C0.0756228 4.14633 -0.00843734 3.70358 0.000668093 3.25762C0.00977352 2.81167 0.111904 2.37278 0.300074 1.97016C0.488245 1.56755 0.75818 1.21042 1.09207 0.922496C1.80384 0.311441 2.70838 -0.0160085 3.63843 0.000602314C4.56849 0.0172131 5.46104 0.376801 6.15142 1.0129L27.0979 21.258C27.4099 21.5523 27.6589 21.9093 27.8292 22.3065C27.9995 22.7037 28.0875 23.1326 28.0875 23.5661C28.0875 23.9997 27.9995 24.4287 27.8292 24.8259C27.6589 25.2231 27.4099 25.5801 27.0979 25.8744L6.15142 46.1155C5.45276 46.7841 4.52952 47.1539 3.57169 47.1488Z" fill="#159822" fill-opacity="0.2"/>
</svg>
