<svg width="538" height="145" viewBox="0 0 538 145" fill="none" xmlns="http://www.w3.org/2000/svg">
<path d="M24.0946 16.21H32.1446V29.55C30.3046 30.8687 28.1886 31.8807 25.7966 32.586C23.4046 33.2913 21.0126 33.644 18.6206 33.644C15.2473 33.644 12.2113 32.9387 9.5126 31.528C6.81393 30.0867 4.69793 28.0933 3.1646 25.548C1.63126 23.0027 0.864598 20.12 0.864598 16.9C0.864598 13.68 1.63126 10.7973 3.1646 8.252C4.69793 5.70666 6.82926 3.72866 9.5586 2.318C12.2879 0.876664 15.3699 0.155998 18.8046 0.155998C21.8099 0.155998 24.5086 0.661998 26.9006 1.674C29.2926 2.686 31.2859 4.14267 32.8806 6.044L27.0846 11.288C24.9073 8.896 22.3006 7.7 19.2646 7.7C16.5046 7.7 14.2813 8.54333 12.5946 10.23C10.9079 11.886 10.0646 14.1093 10.0646 16.9C10.0646 18.6787 10.4479 20.2733 11.2146 21.684C11.9813 23.064 13.0546 24.1527 14.4346 24.95C15.8146 25.7167 17.3939 26.1 19.1726 26.1C20.9206 26.1 22.5613 25.7473 24.0946 25.042V16.21ZM51.995 24.444H47.027V33H37.919V0.799998H52.639C55.5524 0.799998 58.0824 1.29066 60.229 2.272C62.3757 3.22267 64.0317 4.60267 65.197 6.412C66.3624 8.19067 66.945 10.2913 66.945 12.714C66.945 15.0447 66.393 17.084 65.289 18.832C64.2157 20.5493 62.667 21.8987 60.643 22.88L67.589 33H57.837L51.995 24.444ZM57.745 12.714C57.745 11.2113 57.2697 10.046 56.319 9.218C55.3684 8.39 53.9577 7.976 52.087 7.976H47.027V17.406H52.087C53.9577 17.406 55.3684 17.0073 56.319 16.21C57.2697 15.382 57.745 14.2167 57.745 12.714ZM97.8218 25.962V33H71.9698V0.799998H97.2238V7.838H80.9858V13.266H95.2918V20.074H80.9858V25.962H97.8218ZM128.728 25.962V33H102.876V0.799998H128.13V7.838H111.892V13.266H126.198V20.074H111.892V25.962H128.728ZM164.418 0.799998V33H156.92L142.706 15.842V33H133.782V0.799998H141.28L155.494 17.958V0.799998H164.418ZM203.413 0.799998L189.613 33H180.643L166.889 0.799998H176.733L185.473 21.776L194.397 0.799998H203.413ZM205.298 0.799998H214.406V33H205.298V0.799998ZM232.202 33.644C229.595 33.644 227.065 33.322 224.612 32.678C222.158 32.034 220.165 31.1753 218.632 30.102L221.622 23.386C223.063 24.3367 224.734 25.1033 226.636 25.686C228.537 26.2687 230.408 26.56 232.248 26.56C235.744 26.56 237.492 25.686 237.492 23.938C237.492 23.018 236.986 22.3433 235.974 21.914C234.993 21.454 233.398 20.9787 231.19 20.488C228.767 19.9667 226.743 19.4147 225.118 18.832C223.492 18.2187 222.097 17.2527 220.932 15.934C219.766 14.6153 219.184 12.8367 219.184 10.598C219.184 8.63533 219.72 6.872 220.794 5.308C221.867 3.71333 223.462 2.456 225.578 1.536C227.724 0.615998 230.346 0.155998 233.444 0.155998C235.56 0.155998 237.645 0.401332 239.7 0.891999C241.754 1.352 243.564 2.042 245.128 2.962L242.322 9.724C239.255 8.068 236.28 7.24 233.398 7.24C231.588 7.24 230.27 7.516 229.442 8.068C228.614 8.58933 228.2 9.27933 228.2 10.138C228.2 10.9967 228.69 11.6407 229.672 12.07C230.653 12.4993 232.232 12.944 234.41 13.404C236.863 13.9253 238.887 14.4927 240.482 15.106C242.107 15.6887 243.503 16.6393 244.668 17.958C245.864 19.246 246.462 21.0093 246.462 23.248C246.462 25.18 245.925 26.928 244.852 28.492C243.779 30.056 242.169 31.3133 240.022 32.264C237.875 33.184 235.268 33.644 232.202 33.644ZM250.669 0.799998H259.777V33H250.669V0.799998ZM282.495 33.644C279.091 33.644 276.024 32.9233 273.295 31.482C270.596 30.0407 268.465 28.0473 266.901 25.502C265.368 22.9567 264.601 20.0893 264.601 16.9C264.601 13.7107 265.368 10.8433 266.901 8.298C268.465 5.75267 270.596 3.75933 273.295 2.318C276.024 0.876664 279.091 0.155998 282.495 0.155998C285.899 0.155998 288.95 0.876664 291.649 2.318C294.378 3.75933 296.51 5.75267 298.043 8.298C299.607 10.8433 300.389 13.7107 300.389 16.9C300.389 20.0893 299.607 22.9567 298.043 25.502C296.51 28.0473 294.378 30.0407 291.649 31.482C288.95 32.9233 285.899 33.644 282.495 33.644ZM282.495 26.1C284.12 26.1 285.592 25.7167 286.911 24.95C288.23 24.1833 289.272 23.11 290.039 21.73C290.806 20.3193 291.189 18.7093 291.189 16.9C291.189 15.0907 290.806 13.496 290.039 12.116C289.272 10.7053 288.23 9.61667 286.911 8.85C285.592 8.08333 284.12 7.7 282.495 7.7C280.87 7.7 279.398 8.08333 278.079 8.85C276.76 9.61667 275.718 10.7053 274.951 12.116C274.184 13.496 273.801 15.0907 273.801 16.9C273.801 18.7093 274.184 20.3193 274.951 21.73C275.718 23.11 276.76 24.1833 278.079 24.95C279.398 25.7167 280.87 26.1 282.495 26.1ZM335.795 0.799998V33H328.297L314.083 15.842V33H305.159V0.799998H312.657L326.871 17.958V0.799998H335.795ZM365.773 17.268H411.773V22.466H365.773V17.268ZM453.129 0.155998C456.379 0.155998 459.293 0.876664 461.869 2.318C464.445 3.72866 466.453 5.70666 467.895 8.252C469.367 10.7973 470.103 13.68 470.103 16.9C470.103 20.12 469.367 23.0027 467.895 25.548C466.453 28.0933 464.445 30.0867 461.869 31.528C459.293 32.9387 456.379 33.644 453.129 33.644C450.154 33.644 447.471 33.1227 445.079 32.08C442.717 31.0373 440.755 29.5347 439.191 27.572L444.941 22.328C447.087 24.8427 449.663 26.1 452.669 26.1C454.601 26.1 456.241 25.5787 457.591 24.536C458.971 23.4627 459.921 21.9907 460.443 20.12H448.805V13.404H460.351C459.829 11.6253 458.894 10.23 457.545 9.218C456.195 8.206 454.57 7.7 452.669 7.7C449.663 7.7 447.087 8.95733 444.941 11.472L439.191 6.228C440.755 4.26533 442.717 2.76267 445.079 1.72C447.471 0.677332 450.154 0.155998 453.129 0.155998ZM500.509 8.022H490.665V33H481.695V8.022H471.805V0.799998H500.509V8.022ZM520.082 33.644C516.678 33.644 513.612 32.9233 510.882 31.482C508.184 30.0407 506.052 28.0473 504.488 25.502C502.955 22.9567 502.188 20.0893 502.188 16.9C502.188 13.7107 502.955 10.8433 504.488 8.298C506.052 5.75267 508.184 3.75933 510.882 2.318C513.612 0.876664 516.678 0.155998 520.082 0.155998C523.486 0.155998 526.538 0.876664 529.236 2.318C531.966 3.75933 534.097 5.75267 535.63 8.298C537.194 10.8433 537.976 13.7107 537.976 16.9C537.976 20.0893 537.194 22.9567 535.63 25.502C534.097 28.0473 531.966 30.0407 529.236 31.482C526.538 32.9233 523.486 33.644 520.082 33.644ZM520.082 26.1C521.708 26.1 523.18 25.7167 524.498 24.95C525.817 24.1833 526.86 23.11 527.626 21.73C528.393 20.3193 528.776 18.7093 528.776 16.9C528.776 15.0907 528.393 13.496 527.626 12.116C526.86 10.7053 525.817 9.61667 524.498 8.85C523.18 8.08333 521.708 7.7 520.082 7.7C518.457 7.7 516.985 8.08333 515.666 8.85C514.348 9.61667 513.305 10.7053 512.538 12.116C511.772 13.496 511.388 15.0907 511.388 16.9C511.388 18.7093 511.772 20.3193 512.538 21.73C513.305 23.11 514.348 24.1833 515.666 24.95C516.985 25.7167 518.457 26.1 520.082 26.1ZM79.3876 65.3V143H57.6316V82.727H28.1056V143H6.46056V65.3H79.3876ZM131.518 65.3C138.548 65.3 144.653 66.484 149.833 68.852C155.013 71.146 159.009 74.476 161.821 78.842C164.633 83.134 166.039 88.203 166.039 94.049C166.039 99.895 164.633 104.964 161.821 109.256C159.009 113.548 155.013 116.878 149.833 119.246C144.653 121.54 138.548 122.687 131.518 122.687H117.976V143H95.9977V65.3H131.518ZM130.186 105.371C134.7 105.371 138.104 104.409 140.398 102.485C142.692 100.487 143.839 97.675 143.839 94.049C143.839 90.423 142.692 87.611 140.398 85.613C138.104 83.615 134.7 82.616 130.186 82.616H117.976V105.371H130.186ZM215.264 144.554C207.05 144.554 199.65 142.815 193.064 139.337C186.552 135.859 181.409 131.049 177.635 124.907C173.935 118.765 172.085 111.846 172.085 104.15C172.085 96.454 173.935 89.535 177.635 83.393C181.409 77.251 186.552 72.441 193.064 68.963C199.65 65.485 207.05 63.746 215.264 63.746C223.478 63.746 230.841 65.485 237.353 68.963C243.939 72.441 249.082 77.251 252.782 83.393C256.556 89.535 258.443 96.454 258.443 104.15C258.443 111.846 256.556 118.765 252.782 124.907C249.082 131.049 243.939 135.859 237.353 139.337C230.841 142.815 223.478 144.554 215.264 144.554ZM215.264 126.35C219.186 126.35 222.738 125.425 225.92 123.575C229.102 121.725 231.618 119.135 233.468 115.805C235.318 112.401 236.243 108.516 236.243 104.15C236.243 99.784 235.318 95.936 233.468 92.606C231.618 89.202 229.102 86.575 225.92 84.725C222.738 82.875 219.186 81.95 215.264 81.95C211.342 81.95 207.79 82.875 204.608 84.725C201.426 86.575 198.91 89.202 197.06 92.606C195.21 95.936 194.285 99.784 194.285 104.15C194.285 108.516 195.21 112.401 197.06 115.805C198.91 119.135 201.426 121.725 204.608 123.575C207.79 125.425 211.342 126.35 215.264 126.35ZM308.045 144.554C299.905 144.554 292.579 142.852 286.067 139.448C279.629 135.97 274.56 131.16 270.86 125.018C267.16 118.876 265.31 111.92 265.31 104.15C265.31 96.38 267.16 89.424 270.86 83.282C274.56 77.14 279.629 72.367 286.067 68.963C292.579 65.485 299.905 63.746 308.045 63.746C315.149 63.746 321.55 65.004 327.248 67.52C332.946 70.036 337.682 73.662 341.456 78.398L327.47 91.052C322.438 84.984 316.333 81.95 309.155 81.95C304.937 81.95 301.163 82.875 297.833 84.725C294.577 86.575 292.024 89.202 290.174 92.606C288.398 95.936 287.51 99.784 287.51 104.15C287.51 108.516 288.398 112.401 290.174 115.805C292.024 119.135 294.577 121.725 297.833 123.575C301.163 125.425 304.937 126.35 309.155 126.35C316.333 126.35 322.438 123.316 327.47 117.248L341.456 129.902C337.682 134.638 332.946 138.264 327.248 140.78C321.55 143.296 315.149 144.554 308.045 144.554ZM413.338 82.727H389.584V143H367.939V82.727H344.074V65.3H413.338V82.727ZM460.569 144.554C452.355 144.554 444.955 142.815 438.369 139.337C431.857 135.859 426.714 131.049 422.94 124.907C419.24 118.765 417.39 111.846 417.39 104.15C417.39 96.454 419.24 89.535 422.94 83.393C426.714 77.251 431.857 72.441 438.369 68.963C444.955 65.485 452.355 63.746 460.569 63.746C468.783 63.746 476.146 65.485 482.658 68.963C489.244 72.441 494.387 77.251 498.087 83.393C501.861 89.535 503.748 96.454 503.748 104.15C503.748 111.846 501.861 118.765 498.087 124.907C494.387 131.049 489.244 135.859 482.658 139.337C476.146 142.815 468.783 144.554 460.569 144.554ZM460.569 126.35C464.491 126.35 468.043 125.425 471.225 123.575C474.407 121.725 476.923 119.135 478.773 115.805C480.623 112.401 481.548 108.516 481.548 104.15C481.548 99.784 480.623 95.936 478.773 92.606C476.923 89.202 474.407 86.575 471.225 84.725C468.043 82.875 464.491 81.95 460.569 81.95C456.647 81.95 453.095 82.875 449.913 84.725C446.731 86.575 444.215 89.202 442.365 92.606C440.515 95.936 439.59 99.784 439.59 104.15C439.59 108.516 440.515 112.401 442.365 115.805C444.215 119.135 446.731 121.725 449.913 123.575C453.095 125.425 456.647 126.35 460.569 126.35ZM511.393 65.3H536.479L532.261 114.695H515.5L511.393 65.3ZM523.936 143.999C520.236 143.999 517.202 142.889 514.834 140.669C512.466 138.375 511.282 135.6 511.282 132.344C511.282 129.014 512.466 126.276 514.834 124.13C517.202 121.984 520.236 120.911 523.936 120.911C527.636 120.911 530.633 121.984 532.927 124.13C535.295 126.276 536.479 129.014 536.479 132.344C536.479 135.6 535.295 138.375 532.927 140.669C530.559 142.889 527.562 143.999 523.936 143.999Z" fill="#00983D"/>
<path d="M24.0946 16.21H32.1446V29.55C30.3046 30.8687 28.1886 31.8807 25.7966 32.586C23.4046 33.2913 21.0126 33.644 18.6206 33.644C15.2473 33.644 12.2113 32.9387 9.5126 31.528C6.81393 30.0867 4.69793 28.0933 3.1646 25.548C1.63126 23.0027 0.864598 20.12 0.864598 16.9C0.864598 13.68 1.63126 10.7973 3.1646 8.252C4.69793 5.70666 6.82926 3.72866 9.5586 2.318C12.2879 0.876664 15.3699 0.155998 18.8046 0.155998C21.8099 0.155998 24.5086 0.661998 26.9006 1.674C29.2926 2.686 31.2859 4.14267 32.8806 6.044L27.0846 11.288C24.9073 8.896 22.3006 7.7 19.2646 7.7C16.5046 7.7 14.2813 8.54333 12.5946 10.23C10.9079 11.886 10.0646 14.1093 10.0646 16.9C10.0646 18.6787 10.4479 20.2733 11.2146 21.684C11.9813 23.064 13.0546 24.1527 14.4346 24.95C15.8146 25.7167 17.3939 26.1 19.1726 26.1C20.9206 26.1 22.5613 25.7473 24.0946 25.042V16.21ZM51.995 24.444H47.027V33H37.919V0.799998H52.639C55.5524 0.799998 58.0824 1.29066 60.229 2.272C62.3757 3.22267 64.0317 4.60267 65.197 6.412C66.3624 8.19067 66.945 10.2913 66.945 12.714C66.945 15.0447 66.393 17.084 65.289 18.832C64.2157 20.5493 62.667 21.8987 60.643 22.88L67.589 33H57.837L51.995 24.444ZM57.745 12.714C57.745 11.2113 57.2697 10.046 56.319 9.218C55.3684 8.39 53.9577 7.976 52.087 7.976H47.027V17.406H52.087C53.9577 17.406 55.3684 17.0073 56.319 16.21C57.2697 15.382 57.745 14.2167 57.745 12.714ZM97.8218 25.962V33H71.9698V0.799998H97.2238V7.838H80.9858V13.266H95.2918V20.074H80.9858V25.962H97.8218ZM128.728 25.962V33H102.876V0.799998H128.13V7.838H111.892V13.266H126.198V20.074H111.892V25.962H128.728ZM164.418 0.799998V33H156.92L142.706 15.842V33H133.782V0.799998H141.28L155.494 17.958V0.799998H164.418ZM203.413 0.799998L189.613 33H180.643L166.889 0.799998H176.733L185.473 21.776L194.397 0.799998H203.413ZM205.298 0.799998H214.406V33H205.298V0.799998ZM232.202 33.644C229.595 33.644 227.065 33.322 224.612 32.678C222.158 32.034 220.165 31.1753 218.632 30.102L221.622 23.386C223.063 24.3367 224.734 25.1033 226.636 25.686C228.537 26.2687 230.408 26.56 232.248 26.56C235.744 26.56 237.492 25.686 237.492 23.938C237.492 23.018 236.986 22.3433 235.974 21.914C234.993 21.454 233.398 20.9787 231.19 20.488C228.767 19.9667 226.743 19.4147 225.118 18.832C223.492 18.2187 222.097 17.2527 220.932 15.934C219.766 14.6153 219.184 12.8367 219.184 10.598C219.184 8.63533 219.72 6.872 220.794 5.308C221.867 3.71333 223.462 2.456 225.578 1.536C227.724 0.615998 230.346 0.155998 233.444 0.155998C235.56 0.155998 237.645 0.401332 239.7 0.891999C241.754 1.352 243.564 2.042 245.128 2.962L242.322 9.724C239.255 8.068 236.28 7.24 233.398 7.24C231.588 7.24 230.27 7.516 229.442 8.068C228.614 8.58933 228.2 9.27933 228.2 10.138C228.2 10.9967 228.69 11.6407 229.672 12.07C230.653 12.4993 232.232 12.944 234.41 13.404C236.863 13.9253 238.887 14.4927 240.482 15.106C242.107 15.6887 243.503 16.6393 244.668 17.958C245.864 19.246 246.462 21.0093 246.462 23.248C246.462 25.18 245.925 26.928 244.852 28.492C243.779 30.056 242.169 31.3133 240.022 32.264C237.875 33.184 235.268 33.644 232.202 33.644ZM250.669 0.799998H259.777V33H250.669V0.799998ZM282.495 33.644C279.091 33.644 276.024 32.9233 273.295 31.482C270.596 30.0407 268.465 28.0473 266.901 25.502C265.368 22.9567 264.601 20.0893 264.601 16.9C264.601 13.7107 265.368 10.8433 266.901 8.298C268.465 5.75267 270.596 3.75933 273.295 2.318C276.024 0.876664 279.091 0.155998 282.495 0.155998C285.899 0.155998 288.95 0.876664 291.649 2.318C294.378 3.75933 296.51 5.75267 298.043 8.298C299.607 10.8433 300.389 13.7107 300.389 16.9C300.389 20.0893 299.607 22.9567 298.043 25.502C296.51 28.0473 294.378 30.0407 291.649 31.482C288.95 32.9233 285.899 33.644 282.495 33.644ZM282.495 26.1C284.12 26.1 285.592 25.7167 286.911 24.95C288.23 24.1833 289.272 23.11 290.039 21.73C290.806 20.3193 291.189 18.7093 291.189 16.9C291.189 15.0907 290.806 13.496 290.039 12.116C289.272 10.7053 288.23 9.61667 286.911 8.85C285.592 8.08333 284.12 7.7 282.495 7.7C280.87 7.7 279.398 8.08333 278.079 8.85C276.76 9.61667 275.718 10.7053 274.951 12.116C274.184 13.496 273.801 15.0907 273.801 16.9C273.801 18.7093 274.184 20.3193 274.951 21.73C275.718 23.11 276.76 24.1833 278.079 24.95C279.398 25.7167 280.87 26.1 282.495 26.1ZM335.795 0.799998V33H328.297L314.083 15.842V33H305.159V0.799998H312.657L326.871 17.958V0.799998H335.795ZM365.773 17.268H411.773V22.466H365.773V17.268ZM453.129 0.155998C456.379 0.155998 459.293 0.876664 461.869 2.318C464.445 3.72866 466.453 5.70666 467.895 8.252C469.367 10.7973 470.103 13.68 470.103 16.9C470.103 20.12 469.367 23.0027 467.895 25.548C466.453 28.0933 464.445 30.0867 461.869 31.528C459.293 32.9387 456.379 33.644 453.129 33.644C450.154 33.644 447.471 33.1227 445.079 32.08C442.717 31.0373 440.755 29.5347 439.191 27.572L444.941 22.328C447.087 24.8427 449.663 26.1 452.669 26.1C454.601 26.1 456.241 25.5787 457.591 24.536C458.971 23.4627 459.921 21.9907 460.443 20.12H448.805V13.404H460.351C459.829 11.6253 458.894 10.23 457.545 9.218C456.195 8.206 454.57 7.7 452.669 7.7C449.663 7.7 447.087 8.95733 444.941 11.472L439.191 6.228C440.755 4.26533 442.717 2.76267 445.079 1.72C447.471 0.677332 450.154 0.155998 453.129 0.155998ZM500.509 8.022H490.665V33H481.695V8.022H471.805V0.799998H500.509V8.022ZM520.082 33.644C516.678 33.644 513.612 32.9233 510.882 31.482C508.184 30.0407 506.052 28.0473 504.488 25.502C502.955 22.9567 502.188 20.0893 502.188 16.9C502.188 13.7107 502.955 10.8433 504.488 8.298C506.052 5.75267 508.184 3.75933 510.882 2.318C513.612 0.876664 516.678 0.155998 520.082 0.155998C523.486 0.155998 526.538 0.876664 529.236 2.318C531.966 3.75933 534.097 5.75267 535.63 8.298C537.194 10.8433 537.976 13.7107 537.976 16.9C537.976 20.0893 537.194 22.9567 535.63 25.502C534.097 28.0473 531.966 30.0407 529.236 31.482C526.538 32.9233 523.486 33.644 520.082 33.644ZM520.082 26.1C521.708 26.1 523.18 25.7167 524.498 24.95C525.817 24.1833 526.86 23.11 527.626 21.73C528.393 20.3193 528.776 18.7093 528.776 16.9C528.776 15.0907 528.393 13.496 527.626 12.116C526.86 10.7053 525.817 9.61667 524.498 8.85C523.18 8.08333 521.708 7.7 520.082 7.7C518.457 7.7 516.985 8.08333 515.666 8.85C514.348 9.61667 513.305 10.7053 512.538 12.116C511.772 13.496 511.388 15.0907 511.388 16.9C511.388 18.7093 511.772 20.3193 512.538 21.73C513.305 23.11 514.348 24.1833 515.666 24.95C516.985 25.7167 518.457 26.1 520.082 26.1ZM79.3876 65.3V143H57.6316V82.727H28.1056V143H6.46056V65.3H79.3876ZM131.518 65.3C138.548 65.3 144.653 66.484 149.833 68.852C155.013 71.146 159.009 74.476 161.821 78.842C164.633 83.134 166.039 88.203 166.039 94.049C166.039 99.895 164.633 104.964 161.821 109.256C159.009 113.548 155.013 116.878 149.833 119.246C144.653 121.54 138.548 122.687 131.518 122.687H117.976V143H95.9977V65.3H131.518ZM130.186 105.371C134.7 105.371 138.104 104.409 140.398 102.485C142.692 100.487 143.839 97.675 143.839 94.049C143.839 90.423 142.692 87.611 140.398 85.613C138.104 83.615 134.7 82.616 130.186 82.616H117.976V105.371H130.186ZM215.264 144.554C207.05 144.554 199.65 142.815 193.064 139.337C186.552 135.859 181.409 131.049 177.635 124.907C173.935 118.765 172.085 111.846 172.085 104.15C172.085 96.454 173.935 89.535 177.635 83.393C181.409 77.251 186.552 72.441 193.064 68.963C199.65 65.485 207.05 63.746 215.264 63.746C223.478 63.746 230.841 65.485 237.353 68.963C243.939 72.441 249.082 77.251 252.782 83.393C256.556 89.535 258.443 96.454 258.443 104.15C258.443 111.846 256.556 118.765 252.782 124.907C249.082 131.049 243.939 135.859 237.353 139.337C230.841 142.815 223.478 144.554 215.264 144.554ZM215.264 126.35C219.186 126.35 222.738 125.425 225.92 123.575C229.102 121.725 231.618 119.135 233.468 115.805C235.318 112.401 236.243 108.516 236.243 104.15C236.243 99.784 235.318 95.936 233.468 92.606C231.618 89.202 229.102 86.575 225.92 84.725C222.738 82.875 219.186 81.95 215.264 81.95C211.342 81.95 207.79 82.875 204.608 84.725C201.426 86.575 198.91 89.202 197.06 92.606C195.21 95.936 194.285 99.784 194.285 104.15C194.285 108.516 195.21 112.401 197.06 115.805C198.91 119.135 201.426 121.725 204.608 123.575C207.79 125.425 211.342 126.35 215.264 126.35ZM308.045 144.554C299.905 144.554 292.579 142.852 286.067 139.448C279.629 135.97 274.56 131.16 270.86 125.018C267.16 118.876 265.31 111.92 265.31 104.15C265.31 96.38 267.16 89.424 270.86 83.282C274.56 77.14 279.629 72.367 286.067 68.963C292.579 65.485 299.905 63.746 308.045 63.746C315.149 63.746 321.55 65.004 327.248 67.52C332.946 70.036 337.682 73.662 341.456 78.398L327.47 91.052C322.438 84.984 316.333 81.95 309.155 81.95C304.937 81.95 301.163 82.875 297.833 84.725C294.577 86.575 292.024 89.202 290.174 92.606C288.398 95.936 287.51 99.784 287.51 104.15C287.51 108.516 288.398 112.401 290.174 115.805C292.024 119.135 294.577 121.725 297.833 123.575C301.163 125.425 304.937 126.35 309.155 126.35C316.333 126.35 322.438 123.316 327.47 117.248L341.456 129.902C337.682 134.638 332.946 138.264 327.248 140.78C321.55 143.296 315.149 144.554 308.045 144.554ZM413.338 82.727H389.584V143H367.939V82.727H344.074V65.3H413.338V82.727ZM460.569 144.554C452.355 144.554 444.955 142.815 438.369 139.337C431.857 135.859 426.714 131.049 422.94 124.907C419.24 118.765 417.39 111.846 417.39 104.15C417.39 96.454 419.24 89.535 422.94 83.393C426.714 77.251 431.857 72.441 438.369 68.963C444.955 65.485 452.355 63.746 460.569 63.746C468.783 63.746 476.146 65.485 482.658 68.963C489.244 72.441 494.387 77.251 498.087 83.393C501.861 89.535 503.748 96.454 503.748 104.15C503.748 111.846 501.861 118.765 498.087 124.907C494.387 131.049 489.244 135.859 482.658 139.337C476.146 142.815 468.783 144.554 460.569 144.554ZM460.569 126.35C464.491 126.35 468.043 125.425 471.225 123.575C474.407 121.725 476.923 119.135 478.773 115.805C480.623 112.401 481.548 108.516 481.548 104.15C481.548 99.784 480.623 95.936 478.773 92.606C476.923 89.202 474.407 86.575 471.225 84.725C468.043 82.875 464.491 81.95 460.569 81.95C456.647 81.95 453.095 82.875 449.913 84.725C446.731 86.575 444.215 89.202 442.365 92.606C440.515 95.936 439.59 99.784 439.59 104.15C439.59 108.516 440.515 112.401 442.365 115.805C444.215 119.135 446.731 121.725 449.913 123.575C453.095 125.425 456.647 126.35 460.569 126.35ZM511.393 65.3H536.479L532.261 114.695H515.5L511.393 65.3ZM523.936 143.999C520.236 143.999 517.202 142.889 514.834 140.669C512.466 138.375 511.282 135.6 511.282 132.344C511.282 129.014 512.466 126.276 514.834 124.13C517.202 121.984 520.236 120.911 523.936 120.911C527.636 120.911 530.633 121.984 532.927 124.13C535.295 126.276 536.479 129.014 536.479 132.344C536.479 135.6 535.295 138.375 532.927 140.669C530.559 142.889 527.562 143.999 523.936 143.999Z" fill="url(#paint0_linear)"/>
<defs>
<linearGradient id="paint0_linear" x1="269.348" y1="38.6238" x2="269.348" y2="355.614" gradientUnits="userSpaceOnUse">
<stop stop-color="#00983D"/>
<stop offset="1" stop-color="#092007" stop-opacity="0"/>
</linearGradient>
</defs>
</svg>
